<svg xmlns="http://www.w3.org/2000/svg" viewBox="0 0 315.48 315.48"><defs><radialGradient id="radial-gradient" cx="749.74" cy="373.24" r="157.74" gradientUnits="userSpaceOnUse"><stop offset=".45" stop-color="#57b5b8" stop-opacity=".4"/><stop offset=".54" stop-color="#57b7b9" stop-opacity=".41"/><stop offset=".62" stop-color="#59bbbd" stop-opacity=".45"/><stop offset=".7" stop-color="#5bc3c3" stop-opacity=".51"/><stop offset=".78" stop-color="#5dcecc" stop-opacity=".6"/><stop offset=".85" stop-color="#61dcd7" stop-opacity=".71"/><stop offset=".93" stop-color="#65ece5" stop-opacity=".85"/><stop offset="1" stop-color="#6afff4"/></radialGradient><style>.cls-1{fill:#57b5b8}.cls-4{fill:none;stroke:#57b5b8;stroke-miterlimit:10;stroke-linecap:round;stroke-width:6px}</style></defs><g id="Layer_2" data-name="Layer 2"><path class="cls-1" d="M772.5 293.5c-2 23-18 25-23 25s-21-2-23-25 22-52 23-64c1 12 25 41 23 64zM891.59 373.93c-12 .91-41.19 24.68-64.18 22.5s-24.86-18.19-24.82-23.19 2.16-21 25.18-22.8 51.82 22.4 63.82 23.49zM695 373c0 5-2 21-25 23s-52-22-64-23c12-1 41-25 64-23s25 18 25 23zM750.43 515.09c-1.09-12-25.32-40.81-23.49-63.82s17.8-25.14 22.8-25.18 21 1.84 23.19 24.82-21.59 52.17-22.5 64.18zM845.53 276.45c-5.53 10-5.22 29.56-18.53 47.73-12.42 16.94-28.25 10.23-31.5 8.32-3.09-1.82-13.94-12.49-3-30 9.64-15.42 43.5-12.5 53.03-26.05zM846.5 274.87a13.37 13.37 0 0 1-1 1.58 15.5 15.5 0 0 1 1-1.58zM652.5 274.87a15.5 15.5 0 0 1 1 1.58 13.37 13.37 0 0 1-1-1.58zM703.5 332.5c-3.25 1.91-19.08 8.62-31.5-8.32-13.31-18.17-13-37.74-18.53-47.73 9.57 13.52 43.39 10.63 53 26.05 10.97 17.5.12 28.18-2.97 30zM827 421.82c13.31 18.16 13 37.73 18.53 47.72-9.57-13.52-43.39-10.63-53-26.05-10.94-17.51-.09-28.17 3-30 3.22-1.91 19.05-8.61 31.47 8.33zM846.5 471.12a15.5 15.5 0 0 1-1-1.58 13.37 13.37 0 0 1 1 1.58zM652.5 471.12a13.37 13.37 0 0 1 1-1.58 15.5 15.5 0 0 1-1 1.58zM706.5 443.49c-9.64 15.42-43.46 12.53-53 26.05 5.53-10 5.22-29.56 18.53-47.72 12.42-16.94 28.25-10.24 31.5-8.33 3.06 1.83 13.91 12.51 2.97 30zM716.5 293.5c-3-4-26.06-14.24-28-22-2-8 .8-14.58 6.12-18.27 6.59-4.56 17.73-1.69 20.88 4.27 2.9 5.5 1 36 1 36zM670 340s-30.53 1.89-36-1c-6-3.16-8.83-14.3-4.27-20.88C633.43 312.79 640 310 648 312c7.77 1.93 18 25 22 28zM810.5 271.5c-1.94 7.76-25 18-28 22 0 0-1.9-30.53 1-36 3.15-6 14.29-8.83 20.88-4.27 5.32 3.69 8.12 10.27 6.12 18.27zM865 339c-5.47 2.89-36 1-36 1 4-3 14.24-26.06 22-28 8-2 14.58.8 18.27 6.12 4.55 6.57 1.67 17.71-4.27 20.88zM715.5 488.48c-3.15 5.95-14.29 8.83-20.88 4.26-5.32-3.69-8.12-10.26-6.12-18.26 1.94-7.77 25-18 28-22 0 0 1.9 30.52-1 36zM670 406c-4 3-14.24 26.06-22 28-8 2-14.58-.8-18.27-6.13-4.56-6.58-1.68-17.72 4.27-20.87 5.48-2.91 36-1 36-1z" transform="translate(-592 -215.5)"/><circle class="cls-1" cx="134.5" cy="141" r="5"/><path class="cls-1" d="M804.38 492.74c-6.59 4.57-17.73 1.69-20.88-4.26-2.9-5.47-1-36-1-36 3 4 26.06 14.23 28 22 2 8-.8 14.57-6.12 18.26zM869.26 427.86C865.57 433.19 859 436 851 434c-7.76-1.94-18-25-22-28 0 0 30.53-1.9 36 1 5.94 3.14 8.82 14.28 4.26 20.86z" transform="translate(-592 -215.5)"/><circle class="cls-1" cx="180.5" cy="141" r="5"/><path d="M760.48 362.52c-1.41-3.9-2.74-8.85-1-10 3-2 17.59-1 19-1 4 0 14.51 7.78 12 10-2.07 1.83-28-1-30 1-3 3.12.11 23.36-3 24a68.32 68.32 0 0 1-16 0c-3.09-.62 0-20.86-3-24 1.41-3.9 2.74-8.85 1-10-3-2-17.59-1-19-1-4 0-14.51 7.78-12 10 2.07 1.83 28-1 30 1" transform="translate(-592 -215.5)" style="stroke-width:3px;fill:none;stroke:#57b5b8;stroke-miterlimit:10"/><path class="cls-1" d="M724.5 378.05a6 6 0 1 1-6-5.46 5.75 5.75 0 0 1 6 5.46zM786.5 378.05a6 6 0 1 1-6-5.46 5.75 5.75 0 0 1 6 5.46z" transform="translate(-592 -215.5)"/><ellipse cx="157" cy="187.25" rx="21.5" ry="5.25" style="stroke-width:2.94px;fill:none;stroke:#57b5b8;stroke-miterlimit:10"/><path class="cls-4" d="M706.5 348.5s23.51-18 38.26 0M792.5 348.5s-23.51-18-38.26 0" transform="translate(-592 -215.5)"/><circle class="cls-1" cx="157" cy="4.5" r="4.5"/><circle class="cls-1" cx="157" cy="310.98" r="4.5"/><circle class="cls-1" cx="310.98" cy="157" r="4.5"/><circle class="cls-1" cx="4.5" cy="157" r="4.5"/><circle class="cls-1" cx="9.95" cy="118.24" r="4.5"/><circle class="cls-1" cx="48.95" cy="49.24" r="4.5"/><path class="cls-1" d="M676 241.74a4.28 4.28 0 1 1-4.28-4.5 4.39 4.39 0 0 1 4.28 4.5z" transform="translate(-592 -215.5)"/><circle class="cls-1" cx="114.95" cy="9.24" r="4.5"/><circle class="cls-1" cx="23.95" cy="85.24" r="4.5"/><circle class="cls-1" cx="305.54" cy="118.24" r="4.5"/><circle class="cls-1" cx="266.54" cy="49.24" r="4.5"/><ellipse class="cls-1" cx="235.76" cy="26.24" rx="4.28" ry="4.5"/><circle class="cls-1" cx="200.54" cy="9.24" r="4.5"/><circle class="cls-1" cx="291.54" cy="85.24" r="4.5"/><circle class="cls-1" cx="305.54" cy="197.24" r="4.5"/><circle class="cls-1" cx="266.54" cy="266.24" r="4.5"/><ellipse class="cls-1" cx="235.76" cy="289.24" rx="4.28" ry="4.5"/><circle class="cls-1" cx="200.54" cy="306.24" r="4.5"/><circle class="cls-1" cx="291.54" cy="230.24" r="4.5"/><circle class="cls-1" cx="9.95" cy="197.24" r="4.5"/><circle class="cls-1" cx="48.95" cy="266.24" r="4.5"/><path class="cls-1" d="M676 504.74a4.28 4.28 0 1 1-4.28-4.5 4.39 4.39 0 0 1 4.28 4.5z" transform="translate(-592 -215.5)"/><circle class="cls-1" cx="114.95" cy="306.24" r="4.5"/><circle class="cls-1" cx="23.95" cy="230.24" r="4.5"/></g><path d="M596.5 377a4.5 4.5 0 1 1 4.5-4.5 4.49 4.49 0 0 1-4.5 4.5zm5.5 31.24a4.5 4.5 0 1 0 4.5 4.5 4.49 4.49 0 0 0-4.5-4.5zm0-70a4.5 4.5 0 1 0-4.5-4.5 4.49 4.49 0 0 0 4.5 4.5zm14 103a4.5 4.5 0 1 0 4.5 4.5 4.49 4.49 0 0 0-4.5-4.5zm0-136a4.5 4.5 0 1 0-4.5-4.5 4.49 4.49 0 0 0 4.5 4.5zm25 172a4.5 4.5 0 1 0 4.5 4.5 4.49 4.49 0 0 0-4.5-4.5zm0-208a4.5 4.5 0 1 0-4.5-4.5 4.49 4.49 0 0 0 4.5 4.5zm12.52 200.3a13.37 13.37 0 0 0-1 1.58 15.5 15.5 0 0 0 .95-1.58zm-1-194.67a13.37 13.37 0 0 0 1 1.58 15.5 15.5 0 0 0-1.02-1.58zM670 406s-30.53-1.9-36 1c-6 3.15-8.83 14.29-4.27 20.87C633.43 433.19 640 436 648 434c7.77-1.95 18-25 22-28zm-36-67c5.47 2.89 36 1 36 1-4-3-14.24-26.06-22-28-8-2-14.58.8-18.27 6.12-4.55 6.57-1.67 17.71 4.27 20.88zm37.71 161.25a4.51 4.51 0 1 0 4.28 4.5 4.39 4.39 0 0 0-4.27-4.51zm0-254a4.51 4.51 0 1 0-4.27-4.5 4.39 4.39 0 0 0 4.28 4.49zM670 350c-23-2-52 22-64 23 12 1 41 25 64 23s25-18 25-23-2-21-25-23zm36.5 93.49c10.94-17.51.09-28.17-3-30-3.25-1.91-19.08-8.61-31.5 8.33-13.31 18.16-13 37.73-18.53 47.72 9.53-13.54 43.39-10.63 53.03-26.05zm-3-111c3.09-1.82 13.94-12.49 3-30-9.64-15.42-43.46-12.53-53-26.05 5.53 10 5.22 29.56 18.53 47.73 12.39 16.95 28.22 10.24 31.47 8.33zm3.5 184.75a4.5 4.5 0 1 0 4.5 4.5 4.49 4.49 0 0 0-4.5-4.5zm0-288a4.5 4.5 0 1 0-4.5-4.5 4.49 4.49 0 0 0 4.5 4.5zm-18.5 245.24c-2 8 .8 14.57 6.12 18.26 6.59 4.57 17.73 1.69 20.88-4.26 2.9-5.47 1-36 1-36-3 4-26.06 14.23-28 22zm28-181s1.9-30.53-1-36c-3.15-6-14.29-8.83-20.88-4.27-5.32 3.69-8.12 10.27-6.12 18.27 1.94 7.78 25 18.02 28 22.02zM749 522a4.5 4.5 0 1 0 4.5 4.5 4.49 4.49 0 0 0-4.5-4.5zm0-297.48a4.5 4.5 0 1 0-4.5-4.5 4.49 4.49 0 0 0 4.5 4.48zm.5 94c5 0 21-2 23-25s-22-52-23-64c-1 12-25 41-23 64s18 24.98 23 24.98zm.24 107.59c-5 0-21 2.16-22.8 25.18s22.4 51.82 23.49 63.82c.91-12 24.68-41.19 22.5-64.18s-18.19-24.88-23.19-24.84zm42.8 91.15a4.5 4.5 0 1 0 4.5 4.5 4.49 4.49 0 0 0-4.5-4.52zm0-288a4.5 4.5 0 1 0-4.5-4.5 4.49 4.49 0 0 0 4.5 4.48zm-10 223.24s-1.9 30.53 1 36c3.15 5.95 14.29 8.83 20.88 4.26 5.32-3.69 8.12-10.26 6.12-18.26-1.98-7.79-25.04-18.02-28.04-22.02zm28-181c2-8-.8-14.58-6.12-18.27-6.59-4.56-17.73-1.69-20.88 4.27-2.9 5.47-1 36-1 36 2.96-4 26.02-14.24 27.96-22zm17.26 228.74a4.51 4.51 0 1 0 4.28 4.5 4.39 4.39 0 0 0-4.32-4.5zm0-254a4.51 4.51 0 1 0-4.28-4.5 4.39 4.39 0 0 0 4.24 4.5zm0 104.2c-23 1.82-25.14 17.8-25.18 22.8s1.84 21 24.82 23.19 52.17-21.59 64.18-22.5c-12.03-1.09-40.84-25.32-63.85-23.49zm-32.3 63.05c-3.09 1.83-13.94 12.49-3 30 9.64 15.42 43.46 12.53 53 26.05-5.53-10-5.22-29.56-18.53-47.72-12.39-16.94-28.22-10.24-31.47-8.33zm-3-111c-10.94 17.51-.09 28.18 3 30 3.25 1.91 19.08 8.62 31.5-8.32 13.31-18.17 13-37.74 18.53-47.73C836 290 802.14 287.08 792.5 302.5zm54 168.62a13.37 13.37 0 0 0-1-1.58 15.5 15.5 0 0 0 1 1.59zm-1-194.67a13.37 13.37 0 0 0 1-1.58 15.5 15.5 0 0 0-.97 1.59zm13 200.79a4.5 4.5 0 1 0 4.5 4.5 4.49 4.49 0 0 0-4.46-4.49zm0-208a4.5 4.5 0 1 0-4.5-4.5 4.49 4.49 0 0 0 4.54 4.51zM865 407c-5.47-2.9-36-1-36-1 4 3 14.24 26.06 22 28 8 2 14.58-.8 18.27-6.13 4.55-6.59 1.67-17.73-4.27-20.87zm-36-67s30.53 1.89 36-1c6-3.16 8.83-14.3 4.27-20.88C865.57 312.79 859 310 851 312c-7.77 1.93-18 25-22 28zm54.55 101.25a4.5 4.5 0 1 0 4.5 4.5 4.49 4.49 0 0 0-4.51-4.51zm0-136a4.5 4.5 0 1 0-4.5-4.5 4.49 4.49 0 0 0 4.49 4.49zm14 103a4.5 4.5 0 1 0 4.5 4.5 4.49 4.49 0 0 0-4.51-4.51zm0-70a4.5 4.5 0 1 0-4.5-4.5 4.49 4.49 0 0 0 4.49 4.49zM903 368a4.5 4.5 0 1 0 4.5 4.5 4.49 4.49 0 0 0-4.5-4.5z" transform="translate(-592 -215.5)" style="fill:url(#radial-gradient)" id="Layer_3" data-name="Layer 3"/></svg>