<svg id="Layer_3" data-name="Layer 3" xmlns="http://www.w3.org/2000/svg" viewBox="0 0 307.5 259.94"><defs><style>.cls-3{fill:#00ada1}.cls-4{fill:#99faff}</style></defs><path d="M657.5 185.56v141.88a10.09 10.09 0 0 1-10.06 10.06h-27.17c-15.52 40-34.82 71.66-39.33 97.94 1.85-31-22.64-64.09-47.6-97.94H516.5v-98.86a7.67 7.67 0 0 0-7.64-7.64H375.5v-45.44a10.09 10.09 0 0 1 10.06-10.06h261.88a10.09 10.09 0 0 1 10.06 10.06z" transform="translate(-350 -175.5)" style="fill:#57b5b8"/><path d="M350 242.74v81a5.77 5.77 0 0 0 5.74 5.74h15.52c8.86 22.85 19.87 40.91 22.45 55.92-1.06-17.69 12.93-36.59 27.18-55.92h84.37a5.77 5.77 0 0 0 5.74-5.74v-81a5.77 5.77 0 0 0-5.74-5.74H355.74a5.77 5.77 0 0 0-5.74 5.74z" transform="translate(-350 -175.5)" style="fill:#00ced7"/><rect class="cls-3" x="13" y="71.5" width="135" height="21" rx="10.5"/><rect class="cls-3" x="13" y="105.5" width="135" height="21" rx="10.5"/><rect class="cls-4" x="60" y="26.5" width="213" height="21" rx="10.5"/><path class="cls-4" d="M623 257.5a10.52 10.52 0 0 1-10.5 10.5h-96v-21h96a10.52 10.52 0 0 1 10.5 10.5zM623 302.5a10.52 10.52 0 0 1-10.5 10.5h-96v-21h96a10.52 10.52 0 0 1 10.5 10.5z" transform="translate(-350 -175.5)"/></svg>