<svg id="Layer_4" data-name="Layer 4" xmlns="http://www.w3.org/2000/svg" viewBox="0 0 125 125"><defs><style>.cls-2{fill:#99faff}</style></defs><circle cx="62.5" cy="62.5" r="62.5" style="fill:#57b5b8"/><path class="cls-2" d="M1024 283.05c-4.69 0-8.23-.25-9-1.25-2.35-3.1-1.61-7.69.14-14a1.64 1.64 0 0 1 1.67-1.18l7.45.47" transform="translate(-974 -221)"/><path class="cls-2" d="M70 61.51V58"/><path class="cls-2" d="M1024.26 267.05c.23-10.34.53-18.31.74-20.05.45-3.7 5.39-6.87 8.74-8.31a13.53 13.53 0 0 1 5.76-1.19l13.93-1.18a4.27 4.27 0 0 1 4.57 4.26v5.86a5.81 5.81 0 0 1-5.29 5.78c-3.07.3-6.43 1-7.71 1.78-1.94 1.16-1.77 8.64-1.6 11.94a1.49 1.49 0 0 0 1.62 1.42c2.76-.24 8.6-.61 11.48.14 2.58.67 2.15 7.19 1.59 11.41a4.18 4.18 0 0 1-4.13 3.61h-8.46a1.5 1.5 0 0 0-1.5 1.5v40.84a4.16 4.16 0 0 1-4.16 4.16l-13.25.46a1.48 1.48 0 0 1-1.52-1.17c-1.19-5.63-1.35-26.17-1.13-45.24" transform="translate(-974 -221)"/></svg>